# This file uses centimeters as units for non-parametric coordinates.
g default
v 0.475528 -0.154509 1.000000
v 0.500000 -0.000000 1.000000
v 0.404509 -0.293893 1.000000
v 0.475528 0.154509 1.000000
v 0.404509 0.293892 1.000000
v 0.293892 0.404509 1.000000
v 0.154509 0.475528 1.000000
v 0.000000 0.500000 1.000000
v -0.154509 0.475528 1.000000
v -0.293892 0.404509 1.000000
v -0.404509 0.293892 1.000000
v -0.475528 0.154509 1.000000
v -0.500000 -0.000000 1.000000
v -0.475528 -0.154509 1.000000
v -0.404509 -0.293892 1.000000
v -0.293892 -0.404509 1.000000
v -0.154509 -0.475528 1.000000
v 0.000000 -0.500000 1.000000
v 0.154509 -0.475528 1.000000
v 0.293892 -0.404509 1.000000
v 0.000000 0.000000 0.000000
vt 0.975528 -0.654509
vt 1.000000 -0.500000
vt 0.904509 -0.793893
vt 0.975528 -0.345491
vt 0.904509 -0.206107
vt 0.793893 -0.095491
vt 0.654509 -0.024472
vt 0.500000 0.000000
vt 0.345491 -0.024472
vt 0.206107 -0.095491
vt 0.095491 -0.206107
vt 0.024472 -0.345491
vt 0.000000 -0.500000
vt 0.024472 -0.654509
vt 0.095491 -0.793893
vt 0.206107 -0.904509
vt 0.345491 -0.975528
vt 0.500000 -1.000000
vt 0.654509 -0.975528
vt 0.793893 -0.904509
vt 0.000000 0.000000
vt 0.050000 0.000000
vt 0.500000 1.000000
vt 0.100000 0.000000
vt 0.150000 0.000000
vt 0.200000 0.000000
vt 0.250000 0.000000
vt 0.300000 0.000000
vt 0.350000 0.000000
vt 0.400000 0.000000
vt 0.450000 0.000000
vt 0.500000 0.000000
vt 0.550000 0.000000
vt 0.600000 0.000000
vt 0.650000 0.000000
vt 0.700000 0.000000
vt 0.750000 0.000000
vt 0.800000 0.000000
vt 0.850000 0.000000
vt 0.900000 0.000000
vt 0.950000 0.000000
vt 1.000000 0.000000
vn 0.949079 -0.308374 0.064464
vn 0.846398 -0.000000 0.532551
vn 0.083280 -0.060507 0.994688
vn 0.846398 -0.000000 0.532551
vn 0.804972 0.261550 0.532551
vn 0.083280 -0.060507 0.994688
vn 0.804972 0.261550 0.532551
vn 0.684750 0.497500 0.532551
vn 0.083280 -0.060507 0.994688
vn 0.684750 0.497500 0.532551
vn 0.497500 0.684750 0.532551
vn 0.083280 -0.060507 0.994688
vn 0.497500 0.684750 0.532551
vn 0.261550 0.804972 0.532551
vn 0.083280 -0.060507 0.994688
vn 0.261550 0.804972 0.532551
vn 0.000000 0.846398 0.532551
vn 0.083280 -0.060507 0.994688
vn 0.000000 0.846398 0.532551
vn -0.261550 0.804972 0.532551
vn 0.083280 -0.060507 0.994688
vn -0.261550 0.804972 0.532551
vn -0.497500 0.684750 0.532551
vn 0.083280 -0.060507 0.994688
vn -0.497500 0.684750 0.532551
vn -0.684750 0.497500 0.532551
vn 0.083280 -0.060507 0.994688
vn -0.684750 0.497500 0.532551
vn -0.804972 0.261550 0.532551
vn 0.083280 -0.060507 0.994688
vn -0.804972 0.261550 0.532551
vn -0.846398 -0.000000 0.532551
vn 0.083280 -0.060507 0.994688
vn -0.846398 -0.000000 0.532551
vn -0.804972 -0.261550 0.532551
vn 0.083280 -0.060507 0.994688
vn -0.804972 -0.261550 0.532551
vn -0.684750 -0.497500 0.532551
vn 0.083280 -0.060507 0.994688
vn -0.684750 -0.497500 0.532551
vn -0.497500 -0.684750 0.532551
vn 0.083280 -0.060507 0.994688
vn -0.497500 -0.684750 0.532551
vn -0.261550 -0.804972 0.532551
vn 0.083280 -0.060507 0.994688
vn -0.261550 -0.804972 0.532551
vn 0.000000 -0.846398 0.532551
vn 0.083280 -0.060507 0.994688
vn 0.000000 -0.846398 0.532551
vn 0.261550 -0.804972 0.532551
vn 0.083280 -0.060507 0.994688
vn 0.261550 -0.804972 0.532551
vn 0.586562 -0.807335 0.064464
vn 0.083280 -0.060507 0.994688
vn 0.798900 -0.407056 -0.442793
vn 0.798900 -0.407056 -0.442793
vn 0.798900 -0.407056 -0.442793
vn 0.083280 -0.060507 0.994688
vn 0.586562 -0.807335 0.064464
vn -0.000000 -0.000000 -1.000000
vn 0.586562 -0.807335 0.064464
vn 0.261550 -0.804972 0.532551
vn -0.000000 -0.000000 -1.000000
vn 0.261550 -0.804972 0.532551
vn 0.000000 -0.846398 0.532551
vn -0.000000 -0.000000 -1.000000
vn 0.000000 -0.846398 0.532551
vn -0.261550 -0.804972 0.532551
vn -0.000000 -0.000000 -1.000000
vn -0.261550 -0.804972 0.532551
vn -0.497500 -0.684750 0.532551
vn -0.000000 -0.000000 -1.000000
vn -0.497500 -0.684750 0.532551
vn -0.684750 -0.497500 0.532551
vn -0.000000 -0.000000 -1.000000
vn -0.684750 -0.497500 0.532551
vn -0.804972 -0.261550 0.532551
vn -0.000000 -0.000000 -1.000000
vn -0.804972 -0.261550 0.532551
vn -0.846398 -0.000000 0.532551
vn -0.000000 -0.000000 -1.000000
vn -0.846398 -0.000000 0.532551
vn -0.804972 0.261550 0.532551
vn -0.000000 -0.000000 -1.000000
vn -0.804972 0.261550 0.532551
vn -0.684750 0.497500 0.532551
vn -0.000000 -0.000000 -1.000000
vn -0.684750 0.497500 0.532551
vn -0.497500 0.684750 0.532551
vn -0.000000 -0.000000 -1.000000
vn -0.497500 0.684750 0.532551
vn -0.261550 0.804972 0.532551
vn -0.000000 -0.000000 -1.000000
vn -0.261550 0.804972 0.532551
vn 0.000000 0.846398 0.532551
vn -0.000000 -0.000000 -1.000000
vn 0.000000 0.846398 0.532551
vn 0.261550 0.804972 0.532551
vn -0.000000 -0.000000 -1.000000
vn 0.261550 0.804972 0.532551
vn 0.497500 0.684750 0.532551
vn -0.000000 -0.000000 -1.000000
vn 0.497500 0.684750 0.532551
vn 0.684750 0.497500 0.532551
vn -0.000000 -0.000000 -1.000000
vn 0.684750 0.497500 0.532551
vn 0.804972 0.261550 0.532551
vn -0.000000 -0.000000 -1.000000
vn 0.804972 0.261550 0.532551
vn 0.846398 -0.000000 0.532551
vn -0.000000 -0.000000 -1.000000
vn 0.846398 -0.000000 0.532551
vn 0.949079 -0.308374 0.064464
vn -0.000000 -0.000000 -1.000000
s off
g cone_Mesh
f 1/1/1 2/2/2 3/3/3
f 2/2/4 4/4/5 3/3/6
f 4/4/7 5/5/8 3/3/9
f 5/5/10 6/6/11 3/3/12
f 6/6/13 7/7/14 3/3/15
f 7/7/16 8/8/17 3/3/18
f 8/8/19 9/9/20 3/3/21
f 9/9/22 10/10/23 3/3/24
f 10/10/25 11/11/26 3/3/27
f 11/11/28 12/12/29 3/3/30
f 12/12/31 13/13/32 3/3/33
f 13/13/34 14/14/35 3/3/36
f 14/14/37 15/15/38 3/3/39
f 15/15/40 16/16/41 3/3/42
f 16/16/43 17/17/44 3/3/45
f 17/17/46 18/18/47 3/3/48
f 18/18/49 19/19/50 3/3/51
f 19/19/52 20/20/53 3/3/54
f 1/21/55 3/22/56 21/23/57
f 3/22/58 20/24/59 21/23/60
f 20/24/61 19/25/62 21/23/63
f 19/25/64 18/26/65 21/23/66
f 18/26/67 17/27/68 21/23/69
f 17/27/70 16/28/71 21/23/72
f 16/28/73 15/29/74 21/23/75
f 15/29/76 14/30/77 21/23/78
f 14/30/79 13/31/80 21/23/81
f 13/31/82 12/32/83 21/23/84
f 12/32/85 11/33/86 21/23/87
f 11/33/88 10/34/89 21/23/90
f 10/34/91 9/35/92 21/23/93
f 9/35/94 8/36/95 21/23/96
f 8/36/97 7/37/98 21/23/99
f 7/37/100 6/38/101 21/23/102
f 6/38/103 5/39/104 21/23/105
f 5/39/106 4/40/107 21/23/108
f 4/40/109 2/41/110 21/23/111
f 2/41/112 1/42/113 21/23/114
